<svg xmlns="http://www.w3.org/2000/svg" width="151.742" height="168" viewBox="0 0 151.742 168"><g transform="translate(-2345 -715)"><g transform="translate(2345 715)"><path d="M110.681,39.64l75.58,42.672.291,83.851L110.681,207.64,34.81,166.163,35.1,82.312Z" transform="translate(-34.81 -39.64)" fill="#1c1b17" fill-rule="evenodd"/><path d="M1430.8,4376.688l.709,1.432c-1.47-12.97-1.993-15.793-.354-28.639,3.188,5.012,5.668,13.246,13.816,16.11,9.565,2.863,16.65-4.3,21.964-7.161-2.834,6.8-10.628,10.024-17.713,11.1,12.179,17.5,33.636,12.9,39.323,14.32-20.754,5.345-35.6-4.608-44.283-13.6.354,6.444,17.289,24.224,19.415,28.162-4.8-2.424-20.281-19.148-24.375-24.94,6.39,16.7,31.214,37.528,42.039,40.474-.885-3.579-1.684-7.452-.747-10.866.488-1.779,2.526-5.069,1.66-6.818-1.553-1.146-12.937-1.631-16.018-7.3,5.617,2,8.912,4.094,22.69,1.841,12.633,1.748,13.38,1.011,21.472-1.911-.744,4.068-11.638,5.956-16.406,7.368-.283.313,1.3,4.433,1.746,4.875,1.624,4.29,1.237,8.386.007,12.867,13.614-6.856,37.422-23.552,43.1-40.533-2.037,2.838-18.319,22.265-20.953,21.956,10.285-11.623,17.273-21.936,15.639-25.178-11.394,12.944-28.227,18.306-44.283,13.6,5.274-1.54,27.1,3.223,39.323-14.32a28.655,28.655,0,0,1-10.628-3.58c-2.479-1.79-5.668-4.3-6.731-7.518,4.606,2.506,11.691,10.023,21.61,7.16,8.148-2.506,10.628-10.74,13.816-16.11,2.125,15.036,1.062,14.678-.354,28.639,1.063-1.432,1.417-3.58,1.771-5.012a136.755,136.755,0,0,0,2.285-20.675c0-14.037-3.412-34.2-3.412-33.032l-57.681,4.378c-9.718-.655-55.622-8.824-58.425-2.213-.261-1.847-7.364,36.179-.029,55.122Z" transform="translate(-1413.175 -4264.167)" fill="#fdfdfd" fill-rule="evenodd"/><path d="M1493.231,4141.268c3.875-14.867,49.809-24.035,55.939,8.492.355-4.3-.708-18.257,4.608-17.9,5.671.357,4.253,14.677,4.608,18.257,4.363-20.868,39.534-34.308,56.363-10.135,0-7.919-2.158-16.27-3.2-24.233l-56.185,10c-2.085,0-13.685-1.9-15.921-2.282l-43.088-7.721C1495.059,4121.62,1492.314,4135.392,1493.231,4141.268Z" transform="translate(-1478.059 -4070.023)" fill="#c5c6c6" fill-rule="evenodd"/><path d="M3982.017,7842.669a12.665,12.665,0,0,1,.336,7.876c-.812,1.73-3.429,2.708-6.106,2.771h0c-2.678-.063-5.294-1.041-6.106-2.771a12.665,12.665,0,0,1,.336-7.876c-3.359.716-3.023,5.37-2.015,8.592-2.687,1.432-4.031,1.432-6.047-.357-2.351-3.223,1.68-6.8,2.352-7.876-12.093,5.37-3.023,17.184,3.359,16.109-4.031,4.3-15.117,2.864-21.835-2.507l-2.687,1.075c5.365,6.79,23.788,15.364,32.54,5.418l.105-.032.1.032c8.751,9.946,27.174,1.372,32.541-5.418l-2.687-1.075c-6.718,5.371-17.8,6.8-21.835,2.507,6.383,1.074,15.453-10.739,3.36-16.109.671,1.074,4.7,4.653,2.351,7.876-2.016,1.789-3.359,1.789-6.047.357C3985.04,7848.04,3985.375,7843.385,3982.017,7842.669Z" transform="translate(-3900.235 -7755.656)" fill="#434242" fill-rule="evenodd"/><path d="M7917.433,4895.044c12.921-10.887,27.934-14.557,46.238-6.876.2.016.038.042.291,0a19.849,19.849,0,0,0-3.828-3l-4.178-2.5c1.367-.484,5.063.01,5.364-1.247.759-3.155-35.968-8.073-43.713,11.566a6.966,6.966,0,0,0-.175,2.052Z" transform="translate(-7830.014 -4824.761)" fill="#1c1b17" fill-rule="evenodd"/><path d="M1874.839,4895.044c-12.92-10.887-27.933-14.557-46.237-6.876-.2.016-.038.042-.292,0a19.848,19.848,0,0,1,3.828-3l4.178-2.5c-1.366-.484-5.063.01-5.364-1.247-.758-3.155,35.967-8.073,43.714,11.566a6.955,6.955,0,0,1,.174,2.052Z" transform="translate(-1809.876 -4824.761)" fill="#1c1b17" fill-rule="evenodd"/></g></g></svg>