<?xml version="1.0" encoding="UTF-8"?>
<!DOCTYPE svg PUBLIC "-//W3C//DTD SVG 1.1//EN" "http://www.w3.org/Graphics/SVG/1.1/DTD/svg11.dtd">
<!-- Creator: CorelDRAW 2020 (64-Bit) -->
<svg xmlns="http://www.w3.org/2000/svg" xml:space="preserve" width="137.131mm" height="109.587mm" version="1.1" style="shape-rendering:geometricPrecision; text-rendering:geometricPrecision; image-rendering:optimizeQuality; fill-rule:evenodd; clip-rule:evenodd"
viewBox="0 0 1093.6 873.94"
 xmlns:xlink="http://www.w3.org/1999/xlink"
 xmlns:xodm="http://www.corel.com/coreldraw/odm/2003">
 <defs>
  <style type="text/css">
   <![CDATA[
    .fil0 {fill:#FEFEFE}
    .fil1 {fill:#FEFEFE;fill-rule:nonzero}
   ]]>
  </style>
 </defs>
 <g id="Слой_x0020_1">
  <metadata id="CorelCorpID_0Corel-Layer"/>
  <g id="_1912351495248">
   <path class="fil0" d="M405.64 473.91l6.39 -9.65c30.7,67.69 78.2,89.16 145.56,88.38 151.47,-1.74 275.91,-171.44 180.99,-261.21 1.86,-0.18 2.66,-0.07 4.76,-0.38l5.26 -1.12c-14.9,-6.97 -31.58,-1.37 -39.14,11.77 -4.02,6.97 -3.29,10.91 -1.58,15.73 4.22,-10.81 4.05,-12.46 13.48,-20.84 20.27,39.3 -21.34,106.86 -65.07,142.53 -16.13,13.15 -50.51,31.74 -71.29,38.47 -51.47,16.67 -133.55,16.89 -158.04,-22.5 8.24,-5.19 15.29,-1.55 25.92,-2 -29.26,-24 -58.2,-3.69 -47.24,20.81zm39.64 30.3c-13.48,-12.98 -22.87,-31.84 -27.31,-45.09 4.94,0.22 5.92,4.19 10.22,8.8 12.15,13.03 12.1,5.25 15.34,24.1 0.42,2.44 0.71,3.56 1.06,5.84l0.57 5.02c-0.34,-0.05 0.07,0.89 0.12,1.33zm43.73 27.57c-22.45,-4.56 -47.11,-23.23 -42.18,-47.72 4.42,0.99 12.77,5.13 17.13,7.39 6.78,3.51 5.14,6.01 7.9,12.91 4.57,11.42 11.13,17.55 17.16,27.42zm41.89 7.83c-28.34,2.01 -44.43,-11 -54.81,-35.91 -1.79,-4.3 -1.61,-4.57 -1.8,-8.07 5.45,0.44 12.22,2.58 18.6,3.44 10.38,1.41 7.86,1.27 12.23,9.57 5.79,10.99 16.21,20.65 25.78,30.97zm40.63 -2.34c-9.8,3 -10.52,1.82 -19.07,2.41 -7.84,0.54 -11.81,2.06 -19.38,-4.13 -12.62,-10.31 -19.06,-22.35 -27.1,-33.19l4.06 -0.82c6.86,-0.77 19.36,1.79 30.78,-1.02 6.87,13.58 15.21,25.56 30.71,36.75zm55.65 -13.7c-7.8,5.21 -35.23,11.27 -43.9,12.32 -14.59,1.76 -31.58,-22.76 -37.27,-34.91 6.16,-1.76 17.51,-3.66 24.85,-5.18 9.74,-2.01 16.16,-4.08 25.48,-6.53 3.18,12.15 18.35,25.4 30.84,34.3zm130.19 -180.74c-23.53,-26.66 -21.3,-13.77 -25.52,-35.73 -1.41,-7.34 -3.8,-8.73 -2.71,-15.03 18.25,15.01 27.56,34.51 28.23,50.77zm-2.4 43.74c-5.33,-10.21 -7.07,-17.54 -16.12,-28.74 -7.61,-9.42 -8.12,-8.9 -4.78,-32.75 22.74,17.78 31.06,32.95 20.9,61.49zm-85.69 117.28c-10.91,7.97 -24.68,13.81 -36.28,18.37 -13.8,-7.98 -29.72,-22.72 -31.93,-34.7 8.88,-4.07 18.28,-7.66 27.93,-12.68 6.41,-3.34 22.92,-14.92 28.34,-16.6 4.33,8.26 5.91,13.85 8.32,22.4 1.15,4.08 3.87,19.57 3.61,23.21zm70.81 -78.24c-3.11,-5.09 -4.5,-13.54 -7.73,-20.85 -13.68,-30.96 -14.05,-9.21 -1.72,-49.45 8.47,6.78 17.49,24.4 19.82,32.09 3.81,12.57 -2.58,23.71 -10.36,38.21zm-24 36.41c-4.47,-10.02 -2.35,-27.33 -15.68,-45.56l18.62 -27.97c6.46,9.77 12.83,25.27 15,34.15 3.83,15.64 -6.15,23.78 -17.94,39.38zm-41.85 38.82c-1.82,-4.39 -3.02,-14.84 -4.62,-22.03 -1.56,-7.01 -4.4,-16.79 -9.36,-23.14 13.49,-12.67 23.81,-20.78 37.3,-35.43 7.66,9.17 13.84,35.57 13.12,43.58 -1.05,11.63 -27.07,29.93 -36.44,37.01z"/>
   <path class="fil0" d="M426 400.29c32.87,-7.61 61.92,-11.58 86.29,-8.79 -1.79,0.26 -3.01,0.15 -5.39,0.79 -2.3,0.61 -4.09,0.61 -5.21,0.75l-75.7 7.25zm250.8 -122.98c-26.14,21.32 -47.07,41.87 -59.79,62.84 1.3,-1.26 1.96,-2.28 3.92,-3.77 1.9,-1.44 2.98,-2.86 3.78,-3.65l52.08 -55.41zm34.77 69.52c-33.57,3.34 -62.36,8.91 -84.55,19.37 1.78,-0.33 2.9,-0.82 5.35,-0.98 2.38,-0.16 4.06,-0.73 5.17,-0.96l74.02 -17.43zm-11.62 -38.03c-30.81,13.75 -56.38,28.1 -74.14,45.02 1.59,-0.88 2.49,-1.69 4.77,-2.62 2.21,-0.9 3.63,-1.98 4.61,-2.54l64.76 -39.87zm-240.26 161.55c23.2,-24.5 45.23,-43.85 67.08,-54.99 -1.35,1.21 -2.42,1.79 -4.05,3.63 -1.58,1.79 -3.07,2.77 -3.92,3.5l-59.1 47.85zm-22.95 -32.48c29.73,-15.94 56.74,-27.37 80.99,-31.05 -1.66,0.72 -2.86,0.93 -4.99,2.17 -2.06,1.2 -3.78,1.66 -4.83,2.09l-71.17 26.79z"/>
   <path class="fil0" d="M528.64 399.59c7.94,11.27 26.03,7.52 29.5,8.35 5.73,1.38 21.64,23.35 39.25,18.66 15.16,-4.04 4.6,-35.68 11.39,-47.12 5.57,-6.41 12.84,-22.25 1.14,-29.97 -16.29,-10.75 -22.79,13.95 -66.18,25.18 -12.76,3.3 -22.46,14.45 -15.1,24.9z"/>
   <g>
    <path class="fil1" d="M91.61 655.31l-49.37 0c-9.49,0.15 -15.71,2.26 -18.68,6.34 -2.96,4.08 -4.52,8.56 -4.67,13.45 0,0.3 0,0.56 0,0.78 0,0.22 0,0.41 0,0.56 0,0.89 0,1.74 0,2.56 0,0.82 0.07,1.67 0.22,2.56 0,0.3 0,0.59 0,0.89 0,0.3 0,0.59 0,0.89 0,1.19 0.04,2.34 0.11,3.45 0.07,1.11 0.11,2.19 0.11,3.22 0,2.82 -0.56,5.3 -1.67,7.45 -1.11,2.15 -3.37,3.22 -6.78,3.22l-0.22 -0.67c-2.52,0.15 -4.26,-0.89 -5.23,-3.11 -0.96,-2.22 -1.45,-4.97 -1.45,-8.23 0,-1.19 0.04,-2.37 0.11,-3.56 0.07,-1.19 0.19,-2.45 0.33,-3.78 0,-0.59 0.04,-1.22 0.11,-1.89 0.07,-0.67 0.19,-1.37 0.33,-2.11 0.3,-1.93 0.52,-3.67 0.67,-5.23 0.15,-1.56 0.22,-2.85 0.22,-3.89 0,-0.89 -0.11,-1.89 -0.33,-3 -0.22,-1.11 -0.41,-2.19 -0.56,-3.22 0,-0.44 -0.04,-0.89 -0.11,-1.33 -0.07,-0.44 -0.19,-0.89 -0.33,-1.33 -0.15,-0.89 -0.26,-1.78 -0.33,-2.67 -0.07,-0.89 -0.11,-1.78 -0.11,-2.67 0,-2.82 0.67,-5.37 2,-7.67 1.33,-2.3 3.78,-3.45 7.34,-3.45l89.61 -0.22c2.97,0.15 5.63,1.26 8.01,3.34 2.37,2.08 3.56,4.52 3.56,7.34 0,1.04 -0.22,2.19 -0.67,3.45 -0.44,1.26 -1.19,2.63 -2.22,4.11 -0.3,0.44 -0.63,0.89 -1,1.33 -0.37,0.44 -0.78,0.89 -1.22,1.33l-90.95 104.92 62.04 0c7.56,0.15 12.42,-1.45 14.57,-4.78 2.15,-3.34 3.22,-7.3 3.22,-11.9 0,-0.89 -0.04,-1.85 -0.11,-2.82 -0.07,-0.96 -0.11,-1.96 -0.11,-3 -0.15,-0.44 -0.22,-0.89 -0.22,-1.33 0,-0.44 0,-0.96 0,-1.56 -0.15,-1.33 -0.3,-2.71 -0.44,-4.11 -0.15,-1.41 -0.22,-2.71 -0.22,-3.89 0,-2.52 0.56,-4.71 1.67,-6.6 1.11,-1.85 3,-2.78 5.67,-2.78 3.85,0 6.34,1.22 7.45,3.71 1.11,2.45 1.67,5.3 1.67,8.56 0,0.89 -0.04,1.78 -0.11,2.67 -0.07,0.89 -0.11,1.78 -0.11,2.67 0,0.59 -0.04,1.19 -0.11,1.78 -0.07,0.59 -0.11,1.11 -0.11,1.56 -0.15,1.48 -0.3,2.89 -0.44,4.23 -0.15,1.37 -0.22,2.56 -0.22,3.6 0,1.19 0.07,2.45 0.22,3.78 0.15,1.33 0.3,2.67 0.44,4 0,0.3 0,0.52 0,0.67 0,0.15 0.07,0.37 0.22,0.67 0.15,1.48 0.3,2.97 0.44,4.45 0.15,1.48 0.22,2.89 0.22,4.26 0,3.26 -0.82,5.86 -2.45,7.78 -1.63,1.93 -5.04,2.89 -10.23,2.89l-90.72 -0.22c-3.56,0.15 -6.23,-0.96 -8.01,-3.34 -1.78,-2.37 -2.67,-4.97 -2.67,-7.82 0,-0.74 0.07,-1.48 0.22,-2.22 0.15,-0.74 0.3,-1.56 0.44,-2.45 0.44,-1.33 0.96,-2.67 1.56,-4 0.59,-1.33 1.26,-2.52 2,-3.56l87.39 -104.03z"/>
    <path class="fil1" d="M158.05 664.87c-0.15,-3.41 -1,-5.74 -2.56,-7 -1.56,-1.26 -3.3,-2.04 -5.23,-2.34 -0.3,0 -0.56,0 -0.78,0 -0.22,0 -0.48,0 -0.78,0 -0.74,0 -1.48,0.04 -2.22,0.11 -0.74,0.07 -1.48,0.19 -2.22,0.33 -0.3,0 -0.52,0.04 -0.67,0.11 -0.15,0.07 -0.37,0.11 -0.67,0.11 -0.89,0.15 -1.82,0.3 -2.78,0.44 -0.96,0.15 -1.82,0.22 -2.56,0.22 -0.15,0 -0.33,0 -0.56,0 -0.22,0 -0.41,0 -0.56,0 -1.33,-0.3 -2.59,-1.04 -3.78,-2.26 -1.19,-1.22 -1.78,-3.22 -1.78,-5.97l0.44 -1.33c0,0 0,-0.04 0,-0.11 0,-0.07 0,-0.19 0,-0.33 0.15,-1.04 0.89,-2.04 2.22,-3 1.33,-0.96 3.71,-1.45 7.12,-1.45 0.44,0 0.93,0 1.45,0 0.52,0 1.07,0 1.67,0 0.15,0.15 0.26,0.22 0.33,0.22 0.07,0 0.19,0 0.33,0 0.44,0 0.89,0 1.33,0 0.44,0 0.89,0 1.33,0 4.3,0.44 8.23,0.85 11.79,1.22 3.56,0.37 6.75,0.56 9.56,0.56 2.67,0 5.12,-0.11 7.34,-0.33 2.22,-0.22 4.23,-0.41 6,-0.56 1.63,-0.15 3.19,-0.33 4.67,-0.56 1.48,-0.22 2.89,-0.33 4.23,-0.33 0.15,0 0.3,0 0.44,0 0.15,0 0.3,0 0.44,0l51.14 -1.78c4,0.15 6.78,1.41 8.34,3.78 1.56,2.37 2.41,5.04 2.56,8.01 0,0.15 0,0.37 0,0.67 0,0.3 0,0.59 0,0.89 0,0.44 0,0.89 0,1.33 0,0.44 0,0.89 0,1.33 -0.15,1.04 -0.3,2.08 -0.44,3.11 -0.15,1.04 -0.22,2.08 -0.22,3.11 -0.3,1.33 -0.52,2.56 -0.67,3.67 -0.15,1.11 -0.22,2.04 -0.22,2.78 0,1.33 0.11,2.93 0.33,4.78 0.22,1.85 0.48,3.74 0.78,5.67 0,0.59 0.04,1.11 0.11,1.56 0.07,0.44 0.11,0.89 0.11,1.33 0.15,1.63 0.3,3.19 0.44,4.67 0.15,1.48 0.22,2.89 0.22,4.23 0,3.11 -0.52,5.78 -1.56,8.01 -1.04,2.22 -3.26,3.34 -6.67,3.34 -3.26,0 -5.41,-1.15 -6.45,-3.45 -1.04,-2.3 -1.56,-5.08 -1.56,-8.34 0,-1.04 0.04,-2.11 0.11,-3.22 0.07,-1.11 0.11,-2.26 0.11,-3.45 0,-0.44 0,-0.93 0,-1.45 0,-0.52 0.07,-1.08 0.22,-1.67 0,-0.59 0,-1.26 0,-2 0,-0.74 0,-1.41 0,-2 0,-0.15 0,-0.26 0,-0.33 0,-0.07 0,-0.19 0,-0.33 0,-5.04 -1.04,-9.64 -3.11,-13.79 -2.08,-4.15 -6.6,-6.23 -13.56,-6.23l-31.58 -0.22c-4.6,0.15 -8.15,0.89 -10.67,2.22 -2.52,1.33 -3.78,4.37 -3.78,9.12l0 25.76c0,3.26 1.19,5.45 3.56,6.49 2.37,1.04 7.12,1.56 14.23,1.56 6.97,0 11.04,-1.11 12.23,-3.37 1.19,-2.22 1.78,-5.37 1.78,-9.41 0,-0.74 -0.07,-1.56 -0.22,-2.37 -0.15,-0.82 -0.22,-1.74 -0.22,-2.82 -0.15,-0.3 -0.22,-0.59 -0.22,-0.89 0,-0.3 -0.07,-0.59 -0.22,-0.89 0,-0.59 -0.04,-1.26 -0.11,-2.04 -0.07,-0.74 -0.11,-1.41 -0.11,-2 0,-2.22 0.52,-4.19 1.56,-5.89 1.04,-1.7 3.04,-2.56 6,-2.56l0.67 -0.22c2.52,0.15 4.15,1.41 4.89,3.78 0.74,2.37 1.11,5.19 1.11,8.45 0,1.33 -0.04,2.82 -0.11,4.37 -0.07,1.56 -0.19,3.08 -0.33,4.6 -0.15,0.74 -0.26,1.52 -0.33,2.34 -0.07,0.82 -0.11,1.59 -0.11,2.37 -0.3,2.22 -0.56,4.3 -0.78,6.26 -0.22,1.93 -0.33,3.56 -0.33,4.89 0,2.11 0.15,4.34 0.44,6.75 0.3,2.37 0.59,4.82 0.89,7.34 0,0.15 0,0.3 0,0.44 0,0.15 0.07,0.3 0.22,0.44 0.3,2.52 0.59,5.04 0.89,7.56 0.3,2.52 0.44,4.82 0.44,6.89 0,2.82 -0.52,5.3 -1.56,7.45 -1.04,2.15 -3.04,3.22 -6,3.22 -0.15,0 -0.33,0 -0.56,0 -0.22,0 -0.41,0.07 -0.56,0.22 -0.15,0 -0.26,0 -0.33,0 -0.07,0 -0.11,0 -0.11,0 -0.3,0 -0.56,0.04 -0.78,0.11 -0.22,0.07 -0.41,0.11 -0.56,0.11 -1.93,0 -3.3,-0.56 -4.11,-1.67 -0.82,-1.11 -1.22,-2.56 -1.22,-4.34 0,-1.04 0.07,-2.15 0.22,-3.34 0.15,-1.19 0.3,-2.37 0.44,-3.56 0,-0.3 0,-0.63 0,-1 0,-0.37 0,-0.7 0,-1 0.15,-0.89 0.26,-1.78 0.33,-2.67 0.07,-0.89 0.11,-1.78 0.11,-2.67 0,-3.11 -1,-5.93 -3,-8.45 -2,-2.52 -6.04,-3.78 -12.12,-3.78 -5.49,0 -9.52,0.78 -12.12,2.34 -2.59,1.56 -3.89,5.52 -3.89,11.9l0 30.24c0,3.41 0.85,5.74 2.56,7 1.7,1.26 3.52,2.04 5.45,2.34 0.89,0.15 1.74,0.22 2.56,0.22 0.82,0 1.59,0 2.34,0l30.02 0c8.89,0.15 14.86,-0.56 17.9,-2.11 3.04,-1.56 4.56,-7.08 4.56,-16.57 0,-0.74 0,-1.48 0,-2.22 0,-0.74 -0.07,-1.48 -0.22,-2.22 0,-0.44 0,-0.85 0,-1.22 0,-0.37 0,-0.7 0,-1 -0.15,-1.19 -0.26,-2.34 -0.33,-3.45 -0.07,-1.11 -0.11,-2.19 -0.11,-3.22 0,-3.26 0.48,-6.12 1.45,-8.56 0.96,-2.45 2.85,-3.67 5.67,-3.67l0.67 -0.22c2.97,0.15 4.97,1.85 6,5.11 1.04,3.26 1.56,6.89 1.56,10.9 0,0.3 0,0.63 0,1 0,0.37 0,0.7 0,1 0,1.33 -0.04,2.59 -0.11,3.78 -0.07,1.19 -0.11,2.3 -0.11,3.34 0,1.48 -0.04,2.82 -0.11,4 -0.07,1.19 -0.11,2.15 -0.11,2.89l0 17.57c0,4.15 -0.52,6.75 -1.56,7.78 -1.04,1.04 -3.63,1.56 -7.78,1.56l-58.93 -1.78c-2.82,0.15 -5.89,0.37 -9.23,0.67 -3.34,0.3 -6.71,0.59 -10.12,0.89 -0.15,0.15 -0.3,0.22 -0.44,0.22 -0.15,0 -0.3,0 -0.44,0 -3.41,0.15 -6.71,0.37 -9.9,0.67 -3.19,0.3 -6.19,0.44 -9.01,0.44 -4.6,0 -8.49,-0.59 -11.67,-1.78 -3.19,-1.19 -4.78,-3.56 -4.78,-7.12 0,-2.22 0.7,-3.63 2.11,-4.23 1.41,-0.59 3.08,-0.89 5,-0.89 0.44,0 1,0 1.67,0 0.67,0 1.3,0 1.89,0 0.15,0.15 0.26,0.22 0.33,0.22 0.07,0 0.11,0 0.11,0 0.59,0 1.19,0 1.78,0 0.59,0 1.11,0 1.56,0 0.15,0 0.26,0 0.33,0 0.07,0 0.19,0 0.33,0 2.82,0 5.45,-0.7 7.89,-2.11 2.45,-1.41 3.67,-4.37 3.67,-8.82l0 -94.47z"/>
    <path class="fil1" d="M367.28 711.12c9.19,1.78 15.27,5.11 18.23,10.01 2.97,4.89 4.6,10.08 4.89,15.57 0.15,0.74 0.22,1.52 0.22,2.33 0,0.82 0,1.67 0,2.56l0 8.89c0,0.44 0,0.85 0,1.22 0,0.37 0,0.78 0,1.22 0,1.04 0.07,2.11 0.22,3.23 0.15,1.11 0.3,2.11 0.44,3 0.15,0.44 0.26,0.85 0.33,1.22 0.07,0.37 0.11,0.78 0.11,1.22 0.59,2.97 1.63,5.11 3.11,6.45 1.48,1.33 5.04,2 10.67,2l6 0c2.52,0.15 4.52,0.67 6,1.56 1.48,0.89 2.22,3.11 2.22,6.67 0,2.37 -1,3.93 -3,4.67 -2,0.74 -4.19,1.19 -6.56,1.33 -0.3,0 -0.63,0 -1,0 -0.37,0 -0.7,0 -1,0l-9.78 0c-12.6,0 -19.98,-2.89 -22.13,-8.71 -2.15,-5.78 -3.3,-13.16 -3.45,-22.09 0,-0.15 0,-0.33 0,-0.56 0,-0.22 0,-0.48 0,-0.78 0,-0.59 0,-1.19 0,-1.78 0,-0.59 -0.07,-1.26 -0.22,-2 0,-1.78 -0.04,-3.67 -0.11,-5.6 -0.07,-1.93 -0.26,-3.85 -0.56,-5.78 -0.74,-7.45 -3,-12.27 -6.78,-14.53 -3.78,-2.22 -12.05,-3.34 -24.79,-3.34 -1.19,0 -2.52,0 -4,0 -1.48,0 -3.04,0.07 -4.67,0.22 -3.41,0.3 -6.56,0.96 -9.45,2 -2.89,1.04 -4.34,2.97 -4.34,5.78l0 33.35c0,3.85 1,6.41 3,7.67 2,1.26 4.41,1.89 7.23,1.89l8.67 0c0.15,0.15 0.26,0.22 0.33,0.22 0.07,0 0.19,0 0.33,0 2.22,0 4.26,0.41 6.12,1.22 1.85,0.82 2.85,2.56 3,5.23 0,3.11 -1.33,5.15 -4,6.12 -2.67,0.96 -5.78,1.45 -9.34,1.45 -1.33,0 -2.67,-0.04 -4,-0.11 -1.33,-0.07 -2.74,-0.19 -4.23,-0.33 -0.59,0 -1.15,-0.04 -1.67,-0.11 -0.52,-0.07 -1.08,-0.11 -1.67,-0.11 -1.93,-0.3 -3.78,-0.48 -5.56,-0.56 -1.78,-0.07 -3.34,-0.11 -4.67,-0.11 -1.48,0 -3.3,0.07 -5.45,0.22 -2.15,0.15 -4.34,0.37 -6.56,0.67 -0.59,0 -1.19,0.04 -1.78,0.11 -0.59,0.07 -1.19,0.11 -1.78,0.11 -1.78,0.15 -3.52,0.3 -5.23,0.44 -1.7,0.15 -3.3,0.22 -4.78,0.22 -3.26,0 -6.19,-0.44 -8.78,-1.33 -2.59,-0.89 -3.89,-2.74 -3.89,-5.56 0,0 0.04,-0.04 0.11,-0.11 0.07,-0.07 0.11,-0.19 0.11,-0.33 0,0 0.04,-0.04 0.11,-0.11 0.07,-0.07 0.11,-0.11 0.11,-0.11 0,-0.15 0,-0.26 0,-0.33 0,-0.07 0,-0.11 0,-0.11 0.3,-2.52 1.22,-4.08 2.78,-4.67 1.56,-0.59 3.37,-0.89 5.45,-0.89 0.44,0 0.96,0.04 1.56,0.11 0.59,0.07 1.19,0.11 1.78,0.11 0.59,0 1.19,0.04 1.78,0.11 0.59,0.07 1.11,0.11 1.56,0.11 2.96,0 5.71,-0.82 8.23,-2.45 2.52,-1.67 3.78,-4.93 3.78,-9.82l0 -91.35c0,-4.67 -1.04,-7.75 -3.11,-9.23 -2.08,-1.52 -4.3,-2.34 -6.67,-2.48 -0.15,0 -0.26,0 -0.33,0 -0.07,0 -0.19,0 -0.33,0 -0.74,0 -1.56,0.04 -2.45,0.11 -0.89,0.07 -1.78,0.11 -2.67,0.11 0,0 -0.04,0 -0.11,0 -0.07,0 -0.11,0 -0.11,0 -1.04,0.15 -2,0.26 -2.89,0.33 -0.89,0.07 -1.71,0.11 -2.45,0.11 -1.48,0 -2.89,-0.48 -4.22,-1.45 -1.33,-1 -2,-2.74 -2,-5.3l0.44 -1.33c0,-2.37 1.07,-4 3.22,-4.89 2.15,-0.89 4.86,-1.33 8.12,-1.33 2.08,0 4.3,0.07 6.67,0.22 2.37,0.15 4.97,0.37 7.78,0.67 2.37,0.15 4.82,0.33 7.34,0.56 2.52,0.22 5.04,0.33 7.56,0.33 0.3,0 0.63,0 1,0 0.37,0 0.7,0 1,0 1.63,0 3.71,-0.11 6.23,-0.33 2.52,-0.22 5.34,-0.48 8.45,-0.78 3.11,-0.15 6.41,-0.33 9.9,-0.56 3.48,-0.22 7,-0.33 10.56,-0.33 0.89,0 1.78,0 2.67,0 0.89,0 1.78,0.07 2.67,0.22 9.04,0.3 17.42,2.08 25.13,5.37 7.71,3.26 12.38,9.45 14.01,18.57 0.15,0.59 0.26,1.22 0.33,1.89 0.07,0.67 0.11,1.37 0.11,2.11 0.15,0.78 0.3,1.59 0.44,2.48 0.15,0.89 0.22,1.7 0.22,2.45 0.15,0.74 0.22,1.48 0.22,2.15 0,0.67 0,1.37 0,2.11 0,0.3 0,0.63 0,1 0,0.37 0,0.78 0,1.22 -0.3,6.67 -2.52,12.93 -6.67,18.79 -4.15,5.86 -11.93,9.38 -23.35,10.56l0 -0.22zm-49.37 -46.25l0 33.58c0,2.22 1.19,3.82 3.56,4.78 2.37,0.96 4.97,1.59 7.78,1.89 0.89,0.15 1.78,0.22 2.67,0.22 0.89,0 1.71,0 2.45,0 0.15,0 0.3,0 0.44,0 0.15,0 0.3,0 0.44,0 0.44,0 0.89,-0.04 1.33,-0.11 0.44,-0.07 0.89,-0.11 1.33,-0.11 0.59,0 1.11,-0.04 1.56,-0.11 0.44,-0.07 0.74,-0.11 0.89,-0.11 0.59,0 1.19,0.04 1.78,0.11 0.59,0.07 1.19,0.11 1.78,0.11 0.59,0 1.15,0.04 1.67,0.11 0.52,0.07 1,0.11 1.45,0.11 10.53,0 18.31,-2.48 23.35,-7.45 5.04,-4.97 7.78,-10.41 8.23,-16.34 0,-0.3 0,-0.59 0,-0.89 0,-0.3 0,-0.59 0,-0.89 0,-0.59 0,-1.15 0,-1.67 0,-0.52 -0.07,-1.08 -0.22,-1.67 -0.44,-3.71 -1.63,-7.23 -3.56,-10.56 -1.93,-3.34 -4.45,-5.74 -7.56,-7.23 -2.08,-1.19 -4.6,-2.04 -7.56,-2.56 -2.96,-0.52 -6.08,-0.93 -9.34,-1.22 -0.59,0 -1.22,0 -1.89,0 -0.67,0 -1.3,0 -1.89,0 -0.15,0 -0.26,0 -0.33,0 -0.07,0 -0.19,0 -0.33,0 -6.97,0 -13.38,0.96 -19.23,2.89 -5.86,1.93 -8.78,4.37 -8.78,7.34l0 -0.22z"/>
    <path class="fil1" d="M427.32 712.68c0,0 0,-0.15 0,-0.44 0,-0.3 -0.07,-0.52 -0.22,-0.67 0,-0.15 0,-0.26 0,-0.33 0,-0.07 0,-0.19 0,-0.33 0,-0.3 -0.04,-0.59 -0.11,-0.89 -0.07,-0.3 -0.11,-0.52 -0.11,-0.67 0,-22.68 6.3,-39.95 18.9,-51.81 12.6,-11.86 26.61,-17.79 42.03,-17.79 0.74,0 1.52,0 2.33,0 0.82,0 1.67,0.07 2.56,0.22 14.23,1.19 27.28,7.78 39.14,19.79 11.86,12.01 17.79,29.72 17.79,53.15 0,24.46 -6.23,43.03 -18.68,55.7 -12.45,12.68 -26.09,19.31 -40.91,19.9 -0.44,0 -0.82,0 -1.11,0 -0.3,0 -0.59,0 -0.89,0 -0.15,0 -0.26,0 -0.33,0 -0.07,0 -0.19,0 -0.33,0 -14.97,-0.15 -28.69,-6.49 -41.14,-19.01 -12.45,-12.53 -18.75,-31.39 -18.9,-56.59l0 -0.22zm18.9 0c0,20.01 4.3,35.13 12.9,45.36 8.6,10.23 18.16,15.34 28.69,15.34 0,0 0.11,0 0.33,0 0.22,0 0.41,0 0.56,0 0,0.15 0.04,0.22 0.11,0.22 0.07,0 0.11,0 0.11,0 0.15,0 0.3,0 0.44,0 0.15,0 0.3,0 0.44,0 0.3,0 0.63,0 1,0 0.37,0 0.7,0 1,0 9.49,-0.74 18.2,-6 26.13,-15.79 7.93,-9.78 12.19,-24.24 12.79,-43.36 0,-19.57 -4.26,-34.28 -12.79,-44.14 -8.52,-9.86 -17.9,-15.01 -28.13,-15.45 -0.3,0 -0.56,0 -0.78,0 -0.22,0 -0.41,0 -0.56,0 -0.44,0 -0.85,0 -1.22,0 -0.37,0 -0.78,0 -1.22,0 -9.93,0.89 -19.01,6.15 -27.24,15.79 -8.23,9.64 -12.42,23.72 -12.56,42.25l0 -0.22z"/>
    <path class="fil1" d="M581.27 757.37l0 -94.06c0,-3.41 -0.85,-5.6 -2.56,-6.56 -1.71,-0.96 -3.67,-1.45 -5.89,-1.45 -0.74,0 -1.63,0.04 -2.67,0.11 -1.04,0.07 -2,0.11 -2.89,0.11 -1.04,0.15 -2.08,0.26 -3.11,0.33 -1.04,0.07 -1.93,0.11 -2.67,0.11 -1.93,0 -3.52,-0.48 -4.78,-1.45 -1.26,-0.96 -2.04,-2.71 -2.34,-5.23l-0.44 -1.11c0,-2.37 1.26,-4.04 3.78,-5 2.52,-0.96 5.63,-1.45 9.34,-1.45 1.63,0 3.41,0.04 5.34,0.11 1.93,0.07 3.85,0.19 5.78,0.33 0.3,0 0.59,0 0.89,0 0.3,0 0.67,0 1.11,0 2.22,0.15 4.37,0.3 6.45,0.44 2.08,0.15 4,0.22 5.78,0.22 1.63,0 3.63,-0.07 6,-0.22 2.37,-0.15 5.12,-0.37 8.23,-0.67 2.97,-0.15 6.15,-0.3 9.56,-0.44 3.41,-0.15 6.89,-0.22 10.45,-0.22 1.63,0 3.26,0.04 4.89,0.11 1.63,0.07 3.26,0.19 4.89,0.33 11.12,0.74 21.31,3.71 30.58,8.9 9.27,5.19 14.12,14.75 14.56,28.68l0 1.78c0,13.19 -3.93,22.72 -11.79,28.57 -7.86,5.86 -16.46,9.67 -25.79,11.45 -3.85,0.74 -7.67,1.26 -11.45,1.56 -3.78,0.3 -7.3,0.44 -10.56,0.44 -1.63,0 -3.22,-0.04 -4.78,-0.11 -1.56,-0.07 -3,-0.19 -4.34,-0.33 -1.33,-0.15 -2.52,-0.26 -3.56,-0.33 -1.04,-0.07 -1.85,-0.11 -2.45,-0.11 -3.26,0 -5.19,0.56 -5.78,1.67 -0.59,1.11 -0.89,3.22 -0.89,6.34l0 28.69c0,4.3 0.85,7.12 2.56,8.45 1.7,1.33 3.74,2 6.12,2 0.74,0 1.59,-0.04 2.56,-0.11 0.96,-0.07 1.89,-0.19 2.78,-0.33 0.89,-0.15 1.82,-0.26 2.78,-0.33 0.96,-0.07 1.82,-0.11 2.56,-0.11 2.22,0 4.11,0.52 5.67,1.56 1.56,1.04 2.34,3.19 2.34,6.45 0,2.52 -1.45,4.23 -4.34,5.11 -2.89,0.89 -6.19,1.33 -9.9,1.33 -0.74,0 -1.52,0 -2.33,0 -0.82,0 -1.59,0 -2.34,0 -1.48,0 -2.89,-0.07 -4.23,-0.22 -1.33,-0.15 -2.59,-0.37 -3.78,-0.67 -2.08,-0.15 -3.82,-0.33 -5.23,-0.56 -1.41,-0.22 -2.41,-0.33 -3,-0.33 -1.78,0 -3.82,0.15 -6.12,0.44 -2.3,0.3 -4.71,0.59 -7.23,0.89 -0.3,0.15 -0.59,0.22 -0.89,0.22 -0.3,0 -0.59,0.07 -0.89,0.22 -2.22,0.15 -4.37,0.33 -6.45,0.56 -2.08,0.22 -4,0.33 -5.78,0.33 -2.96,0 -5.49,-0.52 -7.56,-1.56 -2.08,-1.04 -3.11,-2.96 -3.11,-5.78 0,-2.97 0.63,-4.97 1.89,-6 1.26,-1.04 2.85,-1.56 4.78,-1.56 0.74,0 1.56,0.04 2.45,0.11 0.89,0.07 1.78,0.19 2.67,0.33 0,0 0.04,0 0.11,0 0.07,0 0.19,0 0.33,0 0.74,0.15 1.52,0.26 2.34,0.33 0.82,0.07 1.59,0.11 2.34,0.11 2.52,0 4.82,-0.82 6.89,-2.45 2.08,-1.63 3.11,-4.89 3.11,-9.78l0 -0.22zm18.9 -55.81c0,2.08 1.04,3.48 3.11,4.23 2.08,0.74 4.89,1.11 8.45,1.11 0.89,0 1.82,-0.04 2.78,-0.11 0.96,-0.07 1.96,-0.11 3,-0.11 1.04,0 2.11,-0.04 3.22,-0.11 1.11,-0.07 2.26,-0.11 3.45,-0.11 0.3,0 0.56,0 0.78,0 0.22,0 0.41,0.07 0.56,0.22 0.15,0 0.3,0 0.44,0 0.15,0 0.22,0 0.22,0 0.44,0 0.82,0.04 1.11,0.11 0.3,0.07 0.59,0.11 0.89,0.11 10.97,0 18.83,-1.59 23.57,-4.78 4.74,-3.19 7.86,-6.71 9.34,-10.56 0.59,-1.78 1,-3.52 1.22,-5.23 0.22,-1.71 0.33,-3.22 0.33,-4.56l0 -4.23c-0.44,-7.26 -3.74,-12.68 -9.9,-16.23 -6.15,-3.56 -12.86,-5.71 -20.12,-6.45 -1.33,-0.15 -2.63,-0.26 -3.89,-0.33 -1.26,-0.07 -2.48,-0.11 -3.67,-0.11 -6.52,0 -12.3,0.74 -17.34,2.22 -5.04,1.48 -7.56,3.26 -7.56,5.34l0 39.58z"/>
    <path class="fil1" d="M692.23 712.68c0,0 0,-0.15 0,-0.44 0,-0.3 -0.07,-0.52 -0.22,-0.67 0,-0.15 0,-0.26 0,-0.33 0,-0.07 0,-0.19 0,-0.33 0,-0.3 -0.04,-0.59 -0.11,-0.89 -0.07,-0.3 -0.11,-0.52 -0.11,-0.67 0,-22.68 6.3,-39.95 18.9,-51.81 12.6,-11.86 26.61,-17.79 42.03,-17.79 0.74,0 1.52,0 2.33,0 0.82,0 1.67,0.07 2.56,0.22 14.23,1.19 27.28,7.78 39.14,19.79 11.86,12.01 17.79,29.72 17.79,53.15 0,24.46 -6.23,43.03 -18.68,55.7 -12.45,12.68 -26.09,19.31 -40.91,19.9 -0.44,0 -0.82,0 -1.11,0 -0.3,0 -0.59,0 -0.89,0 -0.15,0 -0.26,0 -0.33,0 -0.07,0 -0.19,0 -0.33,0 -14.97,-0.15 -28.69,-6.49 -41.14,-19.01 -12.45,-12.53 -18.75,-31.39 -18.9,-56.59l0 -0.22zm18.9 0c0,20.01 4.3,35.13 12.9,45.36 8.6,10.23 18.16,15.34 28.69,15.34 0,0 0.11,0 0.33,0 0.22,0 0.41,0 0.56,0 0,0.15 0.04,0.22 0.11,0.22 0.07,0 0.11,0 0.11,0 0.15,0 0.3,0 0.44,0 0.15,0 0.3,0 0.44,0 0.3,0 0.63,0 1,0 0.37,0 0.7,0 1,0 9.49,-0.74 18.2,-6 26.13,-15.79 7.93,-9.78 12.19,-24.24 12.79,-43.36 0,-19.57 -4.26,-34.28 -12.79,-44.14 -8.52,-9.86 -17.9,-15.01 -28.13,-15.45 -0.3,0 -0.56,0 -0.78,0 -0.22,0 -0.41,0 -0.56,0 -0.44,0 -0.85,0 -1.22,0 -0.37,0 -0.78,0 -1.22,0 -9.93,0.89 -19.01,6.15 -27.24,15.79 -8.23,9.64 -12.42,23.72 -12.56,42.25l0 -0.22z"/>
    <path class="fil1" d="M832.1 712.68c0,0 0,-0.15 0,-0.44 0,-0.3 -0.07,-0.52 -0.22,-0.67 0,-0.15 0,-0.26 0,-0.33 0,-0.07 0,-0.19 0,-0.33 0,-0.3 -0.04,-0.59 -0.11,-0.89 -0.07,-0.3 -0.11,-0.52 -0.11,-0.67 0,-22.68 6.3,-39.95 18.9,-51.81 12.6,-11.86 26.61,-17.79 42.03,-17.79 0.74,0 1.52,0 2.33,0 0.82,0 1.67,0.07 2.56,0.22 14.23,1.19 27.28,7.78 39.14,19.79 11.86,12.01 17.79,29.72 17.79,53.15 0,24.46 -6.23,43.03 -18.68,55.7 -12.45,12.68 -26.09,19.31 -40.91,19.9 -0.44,0 -0.82,0 -1.11,0 -0.3,0 -0.59,0 -0.89,0 -0.15,0 -0.26,0 -0.33,0 -0.07,0 -0.19,0 -0.33,0 -14.97,-0.15 -28.69,-6.49 -41.14,-19.01 -12.45,-12.53 -18.75,-31.39 -18.9,-56.59l0 -0.22zm18.9 0c0,20.01 4.3,35.13 12.9,45.36 8.6,10.23 18.16,15.34 28.69,15.34 0,0 0.11,0 0.33,0 0.22,0 0.41,0 0.56,0 0,0.15 0.04,0.22 0.11,0.22 0.07,0 0.11,0 0.11,0 0.15,0 0.3,0 0.44,0 0.15,0 0.3,0 0.44,0 0.3,0 0.63,0 1,0 0.37,0 0.7,0 1,0 9.49,-0.74 18.2,-6 26.13,-15.79 7.93,-9.78 12.19,-24.24 12.79,-43.36 0,-19.57 -4.26,-34.28 -12.79,-44.14 -8.52,-9.86 -17.9,-15.01 -28.13,-15.45 -0.3,0 -0.56,0 -0.78,0 -0.22,0 -0.41,0 -0.56,0 -0.44,0 -0.85,0 -1.22,0 -0.37,0 -0.78,0 -1.22,0 -9.93,0.89 -19.01,6.15 -27.24,15.79 -8.23,9.64 -12.42,23.72 -12.56,42.25l0 -0.22z"/>
    <path class="fil1" d="M995.98 762.04l0 -97.17c0,-3.26 -1.08,-5.3 -3.22,-6.12 -2.15,-0.82 -4.48,-1.22 -7,-1.22 -0.44,0 -0.93,0.04 -1.45,0.11 -0.52,0.07 -1,0.11 -1.45,0.11 -0.59,0 -1.15,0.04 -1.67,0.11 -0.52,0.07 -1,0.11 -1.45,0.11 -2.37,0 -4.45,-0.48 -6.23,-1.45 -1.78,-0.96 -2.67,-2.85 -2.67,-5.67 0.15,-3.56 1.48,-5.97 4,-7.23 2.52,-1.26 5.34,-1.89 8.45,-1.89 1.04,0 2.11,0.04 3.22,0.11 1.11,0.07 2.26,0.19 3.45,0.33 1.04,0.15 2.04,0.3 3,0.44 0.96,0.15 1.96,0.3 3,0.44 1.93,0.44 3.74,0.82 5.45,1.11 1.71,0.3 3.08,0.44 4.11,0.44 0.89,0 2.22,-0.15 4,-0.44 1.78,-0.3 3.78,-0.67 6,-1.11 1.19,-0.15 2.45,-0.3 3.78,-0.44 1.33,-0.15 2.67,-0.3 4,-0.44 1.04,-0.15 2.08,-0.26 3.11,-0.33 1.04,-0.07 2.08,-0.11 3.11,-0.11 3.41,0 6.37,0.52 8.89,1.56 2.52,1.04 3.78,3.04 3.78,6 0,3.56 -0.78,5.97 -2.33,7.23 -1.56,1.26 -3.37,1.89 -5.45,1.89 -0.74,0 -1.52,-0.04 -2.34,-0.11 -0.82,-0.07 -1.67,-0.19 -2.56,-0.33 0,0 -0.07,0 -0.22,0 -0.15,0 -0.22,0 -0.22,0 -1.04,-0.15 -2,-0.26 -2.89,-0.33 -0.89,-0.07 -1.7,-0.11 -2.45,-0.11 -2.37,0 -4.45,0.7 -6.23,2.11 -1.78,1.41 -2.67,4.26 -2.67,8.56l0 93.84c0,3.41 1.85,5.74 5.56,7 3.71,1.26 7.78,1.89 12.23,1.89 0.89,0 1.85,-0.04 2.89,-0.11 1.04,-0.07 2.15,-0.11 3.34,-0.11 0.3,0 0.63,-0.04 1,-0.11 0.37,-0.07 0.7,-0.11 1,-0.11 1.33,-0.15 2.67,-0.26 4,-0.33 1.33,-0.07 2.52,-0.11 3.56,-0.11 0.89,0 1.78,0.04 2.67,0.11 0.89,0.07 1.78,0.11 2.67,0.11 0.89,0 1.74,0.04 2.56,0.11 0.82,0.07 1.67,0.11 2.56,0.11 4.89,0 9.19,-0.93 12.9,-2.78 3.71,-1.85 5.56,-6.34 5.56,-13.45 0,-0.59 -0.07,-1.37 -0.22,-2.33 -0.15,-0.96 -0.22,-2.04 -0.22,-3.22 -0.15,-1.04 -0.3,-2.11 -0.44,-3.23 -0.15,-1.11 -0.22,-2.19 -0.22,-3.22 0,-0.3 0,-0.59 0,-0.89 0,-0.3 0,-0.59 0,-0.89 0,-0.3 0,-0.59 0,-0.89 0,-0.3 0,-0.59 0,-0.89 0.15,-3.26 0.89,-6.26 2.22,-9.01 1.33,-2.74 3.63,-4.11 6.89,-4.11 3.11,0 5.19,0.89 6.23,2.67 1.04,1.78 1.56,3.93 1.56,6.45 0,0.59 -0.04,1.22 -0.11,1.89 -0.07,0.67 -0.11,1.3 -0.11,1.89 -0.15,0.59 -0.26,1.19 -0.33,1.78 -0.07,0.59 -0.11,1.19 -0.11,1.78 -0.3,1.19 -0.52,2.3 -0.67,3.34 -0.15,1.04 -0.22,1.93 -0.22,2.67 0,1.48 0.11,3.11 0.33,4.89 0.22,1.78 0.48,3.63 0.78,5.56 0,0.59 0.04,1.11 0.11,1.56 0.07,0.44 0.11,0.96 0.11,1.56 0.15,1.33 0.3,2.71 0.44,4.11 0.15,1.41 0.22,2.78 0.22,4.11 0,3.89 -1,7.3 -3,10.15 -2,2.85 -6.04,4.3 -12.12,4.3l-4.23 0c-11.27,-0.74 -22.05,-1.15 -32.35,-1.22 -10.3,-0.07 -18.64,-0.11 -25.02,-0.11 -1.93,0 -4.15,0.04 -6.67,0.11 -2.52,0.07 -5.19,0.26 -8.01,0.56 -0.74,0 -1.56,0.04 -2.45,0.11 -0.89,0.07 -1.71,0.11 -2.45,0.11 -2.08,0.15 -4.08,0.26 -6,0.33 -1.93,0.07 -3.78,0.11 -5.56,0.11 -4.6,0 -8.56,-0.41 -11.9,-1.22 -3.34,-0.82 -5,-2.41 -5,-4.78 0,-0.15 0,-0.3 0,-0.44 0,-0.15 0.07,-0.3 0.22,-0.44 0,0 0,-0.07 0,-0.22 0,-0.15 0,-0.3 0,-0.44 0.59,-2.15 1.48,-3.67 2.67,-4.49 1.19,-0.85 2.45,-1.45 3.78,-1.74 0.3,0 0.56,0 0.78,0 0.22,0 0.48,0 0.78,0 0.74,0 1.59,0.07 2.56,0.22 0.96,0.15 1.96,0.22 3,0.22 0,0.15 0.04,0.22 0.11,0.22 0.07,0 0.19,0 0.33,0 0.89,0.15 1.78,0.26 2.67,0.33 0.89,0.07 1.7,0.11 2.45,0.11 1.93,0 3.67,-0.67 5.23,-2 1.56,-1.33 2.41,-3.78 2.56,-7.34l0 -0.22z"/>
   </g>
   <path class="fil1" d="M78.86 839.24c4.44,0 7.94,1.06 10.49,3.19 2.55,2.12 3.82,5.05 3.82,8.77 0,3.72 -1.27,6.65 -3.82,8.77 -2.55,2.12 -6.04,3.19 -10.49,3.19l-8.48 0 0 10.39 -4.9 0 0 -34.31 13.38 0zm-0.15 19.65c3.1,0 5.47,-0.66 7.11,-1.98 1.63,-1.32 2.45,-3.23 2.45,-5.71 0,-2.48 -0.82,-4.39 -2.45,-5.71 -1.63,-1.32 -4,-1.98 -7.11,-1.98l-8.33 0 0 15.39 8.33 0zm44.6 14.65l-7.4 -10.54c-0.92,0.07 -1.63,0.1 -2.16,0.1l-8.48 0 0 10.44 -4.9 0 0 -34.31 13.38 0c4.44,0 7.94,1.06 10.49,3.19 2.55,2.12 3.82,5.05 3.82,8.77 0,2.65 -0.65,4.9 -1.96,6.76 -1.31,1.86 -3.17,3.22 -5.59,4.07l8.14 11.52 -5.34 0zm-9.7 -14.6c3.1,0 5.47,-0.67 7.11,-2.01 1.63,-1.34 2.45,-3.25 2.45,-5.73 0,-2.48 -0.82,-4.39 -2.45,-5.71 -1.63,-1.32 -4,-1.98 -7.11,-1.98l-8.33 0 0 15.44 8.33 0zm22.4 -19.7l4.9 0 0 34.31 -4.9 0 0 -34.31zm44.65 0l-15.05 34.31 -4.85 0 -15.09 -34.31 5.29 0 12.35 28.18 12.45 -28.18 4.9 0zm25.14 25.73l-18.23 0 -3.77 8.58 -5.05 0 15.53 -34.31 4.85 0 15.59 34.31 -5.15 0 -3.77 -8.58zm-1.72 -3.92l-7.4 -16.81 -7.4 16.81 14.8 0zm30.58 12.89c-3.43,0 -6.53,-0.76 -9.29,-2.28 -2.76,-1.52 -4.93,-3.61 -6.49,-6.27 -1.57,-2.66 -2.35,-5.66 -2.35,-8.99 0,-3.33 0.78,-6.33 2.35,-8.99 1.57,-2.66 3.74,-4.75 6.52,-6.27 2.78,-1.52 5.88,-2.28 9.31,-2.28 2.68,0 5.13,0.45 7.35,1.35 2.22,0.9 4.12,2.23 5.69,3.99l-3.19 3.09c-2.58,-2.71 -5.8,-4.07 -9.65,-4.07 -2.55,0 -4.85,0.57 -6.91,1.72 -2.06,1.14 -3.67,2.72 -4.83,4.73 -1.16,2.01 -1.74,4.26 -1.74,6.74 0,2.48 0.58,4.73 1.74,6.74 1.16,2.01 2.77,3.59 4.83,4.73 2.06,1.14 4.36,1.72 6.91,1.72 3.82,0 7.04,-1.37 9.65,-4.12l3.19 3.09c-1.57,1.76 -3.47,3.1 -5.71,4.02 -2.24,0.91 -4.7,1.37 -7.38,1.37zm32.64 -12.25l0 11.86 -4.85 0 0 -11.96 -13.62 -22.35 5.24 0 10.98 18.08 11.03 -18.08 4.85 0 -13.63 22.45zm41.76 12.25c-2.58,0 -5.07,-0.4 -7.47,-1.2 -2.4,-0.8 -4.29,-1.84 -5.66,-3.11l1.81 -3.82c1.31,1.18 2.98,2.13 5.02,2.87 2.04,0.74 4.14,1.1 6.3,1.1 2.84,0 4.97,-0.48 6.37,-1.45 1.41,-0.96 2.11,-2.25 2.11,-3.85 0,-1.18 -0.38,-2.13 -1.15,-2.87 -0.77,-0.74 -1.72,-1.3 -2.84,-1.69 -1.13,-0.39 -2.72,-0.83 -4.78,-1.32 -2.58,-0.62 -4.66,-1.24 -6.25,-1.86 -1.58,-0.62 -2.94,-1.58 -4.07,-2.87 -1.13,-1.29 -1.69,-3.03 -1.69,-5.22 0,-1.83 0.48,-3.48 1.45,-4.95 0.96,-1.47 2.43,-2.65 4.39,-3.53 1.96,-0.88 4.39,-1.32 7.3,-1.32 2.03,0 4.02,0.26 5.98,0.78 1.96,0.52 3.64,1.27 5.05,2.25l-1.62 3.92c-1.44,-0.91 -2.97,-1.61 -4.61,-2.08 -1.63,-0.47 -3.23,-0.71 -4.8,-0.71 -2.78,0 -4.86,0.51 -6.25,1.52 -1.39,1.01 -2.08,2.32 -2.08,3.92 0,1.18 0.39,2.13 1.18,2.87 0.78,0.73 1.76,1.31 2.92,1.72 1.16,0.41 2.74,0.84 4.73,1.3 2.58,0.62 4.66,1.24 6.22,1.86 1.57,0.62 2.92,1.57 4.04,2.84 1.13,1.27 1.69,2.99 1.69,5.15 0,1.8 -0.49,3.44 -1.47,4.93 -0.98,1.49 -2.47,2.66 -4.46,3.53 -1.99,0.87 -4.44,1.3 -7.35,1.3zm35.92 0c-3.46,0 -6.58,-0.76 -9.36,-2.28 -2.78,-1.52 -4.96,-3.62 -6.54,-6.3 -1.58,-2.68 -2.38,-5.67 -2.38,-8.97 0,-3.3 0.79,-6.29 2.38,-8.97 1.58,-2.68 3.77,-4.78 6.54,-6.3 2.78,-1.52 5.9,-2.28 9.36,-2.28 3.43,0 6.53,0.76 9.31,2.28 2.78,1.52 4.95,3.61 6.52,6.27 1.57,2.66 2.35,5.66 2.35,8.99 0,3.33 -0.78,6.33 -2.35,8.99 -1.57,2.66 -3.74,4.75 -6.52,6.27 -2.78,1.52 -5.88,2.28 -9.31,2.28zm0 -4.36c2.52,0 4.78,-0.57 6.79,-1.72 2.01,-1.14 3.59,-2.72 4.75,-4.73 1.16,-2.01 1.74,-4.26 1.74,-6.74 0,-2.48 -0.58,-4.73 -1.74,-6.74 -1.16,-2.01 -2.74,-3.59 -4.75,-4.73 -2.01,-1.14 -4.27,-1.72 -6.79,-1.72 -2.52,0 -4.79,0.57 -6.84,1.72 -2.04,1.14 -3.64,2.72 -4.8,4.73 -1.16,2.01 -1.74,4.26 -1.74,6.74 0,2.48 0.58,4.73 1.74,6.74 1.16,2.01 2.76,3.59 4.8,4.73 2.04,1.14 4.32,1.72 6.84,1.72zm25.68 -30.34l4.9 0 0 30.04 18.57 0 0 4.26 -23.47 0 0 -34.31zm42.73 34.7c-4.57,0 -8.14,-1.31 -10.68,-3.92 -2.55,-2.61 -3.82,-6.37 -3.82,-11.27l0 -19.51 4.9 0 0 19.31c0,7.35 3.22,11.03 9.66,11.03 3.14,0 5.54,-0.91 7.2,-2.72 1.67,-1.81 2.5,-4.58 2.5,-8.31l0 -19.31 4.75 0 0 19.51c0,4.93 -1.27,8.7 -3.82,11.3 -2.55,2.6 -6.11,3.9 -10.68,3.9zm30.73 -30.43l-11.76 0 0 -4.26 28.38 0 0 4.26 -11.76 0 0 30.04 -4.85 0 0 -30.04zm21.96 -4.26l4.9 0 0 34.31 -4.9 0 0 -34.31zm30.68 34.7c-3.46,0 -6.58,-0.76 -9.36,-2.28 -2.78,-1.52 -4.96,-3.62 -6.54,-6.3 -1.58,-2.68 -2.38,-5.67 -2.38,-8.97 0,-3.3 0.79,-6.29 2.38,-8.97 1.58,-2.68 3.77,-4.78 6.54,-6.3 2.78,-1.52 5.9,-2.28 9.36,-2.28 3.43,0 6.53,0.76 9.31,2.28 2.78,1.52 4.95,3.61 6.52,6.27 1.57,2.66 2.35,5.66 2.35,8.99 0,3.33 -0.78,6.33 -2.35,8.99 -1.57,2.66 -3.74,4.75 -6.52,6.27 -2.78,1.52 -5.88,2.28 -9.31,2.28zm0 -4.36c2.52,0 4.78,-0.57 6.79,-1.72 2.01,-1.14 3.59,-2.72 4.75,-4.73 1.16,-2.01 1.74,-4.26 1.74,-6.74 0,-2.48 -0.58,-4.73 -1.74,-6.74 -1.16,-2.01 -2.74,-3.59 -4.75,-4.73 -2.01,-1.14 -4.27,-1.72 -6.79,-1.72 -2.52,0 -4.79,0.57 -6.84,1.72 -2.04,1.14 -3.64,2.72 -4.8,4.73 -1.16,2.01 -1.74,4.26 -1.74,6.74 0,2.48 0.58,4.73 1.74,6.74 1.16,2.01 2.76,3.59 4.8,4.73 2.04,1.14 4.32,1.72 6.84,1.72zm55.18 -30.34l0 34.31 -4.02 0 -20.58 -25.58 0 25.58 -4.9 0 0 -34.31 4.02 0 20.58 25.58 0 -25.58 4.9 0zm28.38 4.26l0 11.96 17.2 0 0 4.22 -17.2 0 0 13.87 -4.9 0 0 -34.31 24.21 0 0 4.26 -19.31 0zm41.31 30.43c-3.46,0 -6.58,-0.76 -9.36,-2.28 -2.78,-1.52 -4.96,-3.62 -6.54,-6.3 -1.58,-2.68 -2.38,-5.67 -2.38,-8.97 0,-3.3 0.79,-6.29 2.38,-8.97 1.58,-2.68 3.77,-4.78 6.54,-6.3 2.78,-1.52 5.9,-2.28 9.36,-2.28 3.43,0 6.53,0.76 9.31,2.28 2.78,1.52 4.95,3.61 6.52,6.27 1.57,2.66 2.35,5.66 2.35,8.99 0,3.33 -0.78,6.33 -2.35,8.99 -1.57,2.66 -3.74,4.75 -6.52,6.27 -2.78,1.52 -5.88,2.28 -9.31,2.28zm0 -4.36c2.52,0 4.78,-0.57 6.79,-1.72 2.01,-1.14 3.59,-2.72 4.75,-4.73 1.16,-2.01 1.74,-4.26 1.74,-6.74 0,-2.48 -0.58,-4.73 -1.74,-6.74 -1.16,-2.01 -2.74,-3.59 -4.75,-4.73 -2.01,-1.14 -4.27,-1.72 -6.79,-1.72 -2.52,0 -4.79,0.57 -6.84,1.72 -2.04,1.14 -3.64,2.72 -4.8,4.73 -1.16,2.01 -1.74,4.26 -1.74,6.74 0,2.48 0.58,4.73 1.74,6.74 1.16,2.01 2.76,3.59 4.8,4.73 2.04,1.14 4.32,1.72 6.84,1.72zm48.62 3.97l-7.4 -10.54c-0.92,0.07 -1.63,0.1 -2.16,0.1l-8.48 0 0 10.44 -4.9 0 0 -34.31 13.38 0c4.44,0 7.94,1.06 10.49,3.19 2.55,2.12 3.82,5.05 3.82,8.77 0,2.65 -0.65,4.9 -1.96,6.76 -1.31,1.86 -3.17,3.22 -5.59,4.07l8.14 11.52 -5.34 0zm-9.7 -14.6c3.1,0 5.47,-0.67 7.11,-2.01 1.63,-1.34 2.45,-3.25 2.45,-5.73 0,-2.48 -0.82,-4.39 -2.45,-5.71 -1.63,-1.32 -4,-1.98 -7.11,-1.98l-8.33 0 0 15.44 8.33 0zm58.66 -3.19c1.99,0.56 3.56,1.56 4.7,3.01 1.14,1.45 1.72,3.29 1.72,5.51 0,2.97 -1.12,5.26 -3.36,6.86 -2.24,1.6 -5.5,2.4 -9.78,2.4l-16.37 0 0 -34.31 15.39 0c3.92,0 6.95,0.78 9.09,2.35 2.14,1.57 3.21,3.74 3.21,6.52 0,1.8 -0.42,3.35 -1.25,4.66 -0.83,1.31 -1.95,2.3 -3.36,2.99zm-18.18 -12.55l0 10.98 10.05 0c2.52,0 4.45,-0.47 5.81,-1.4 1.36,-0.93 2.03,-2.3 2.03,-4.09 0,-1.8 -0.68,-3.16 -2.03,-4.09 -1.36,-0.93 -3.29,-1.4 -5.81,-1.4l-10.05 0zm11.27 26.37c2.78,0 4.87,-0.46 6.27,-1.37 1.4,-0.92 2.11,-2.35 2.11,-4.31 0,-3.82 -2.79,-5.73 -8.38,-5.73l-11.27 0 0 11.42 11.27 0zm20.93 -30.34l4.9 0 0 30.04 18.57 0 0 4.26 -23.47 0 0 -34.31zm43.96 34.7c-3.46,0 -6.58,-0.76 -9.36,-2.28 -2.78,-1.52 -4.96,-3.62 -6.54,-6.3 -1.58,-2.68 -2.38,-5.67 -2.38,-8.97 0,-3.3 0.79,-6.29 2.38,-8.97 1.58,-2.68 3.77,-4.78 6.54,-6.3 2.78,-1.52 5.9,-2.28 9.36,-2.28 3.43,0 6.53,0.76 9.31,2.28 2.78,1.52 4.95,3.61 6.52,6.27 1.57,2.66 2.35,5.66 2.35,8.99 0,3.33 -0.78,6.33 -2.35,8.99 -1.57,2.66 -3.74,4.75 -6.52,6.27 -2.78,1.52 -5.88,2.28 -9.31,2.28zm0 -4.36c2.52,0 4.78,-0.57 6.79,-1.72 2.01,-1.14 3.59,-2.72 4.75,-4.73 1.16,-2.01 1.74,-4.26 1.74,-6.74 0,-2.48 -0.58,-4.73 -1.74,-6.74 -1.16,-2.01 -2.74,-3.59 -4.75,-4.73 -2.01,-1.14 -4.27,-1.72 -6.79,-1.72 -2.52,0 -4.79,0.57 -6.84,1.72 -2.04,1.14 -3.64,2.72 -4.8,4.73 -1.16,2.01 -1.74,4.26 -1.74,6.74 0,2.48 0.58,4.73 1.74,6.74 1.16,2.01 2.76,3.59 4.8,4.73 2.04,1.14 4.32,1.72 6.84,1.72zm41.02 4.36c-3.43,0 -6.53,-0.76 -9.29,-2.28 -2.76,-1.52 -4.93,-3.61 -6.49,-6.27 -1.57,-2.66 -2.35,-5.66 -2.35,-8.99 0,-3.33 0.78,-6.33 2.35,-8.99 1.57,-2.66 3.74,-4.75 6.52,-6.27 2.78,-1.52 5.88,-2.28 9.31,-2.28 2.68,0 5.13,0.45 7.35,1.35 2.22,0.9 4.12,2.23 5.69,3.99l-3.19 3.09c-2.58,-2.71 -5.8,-4.07 -9.65,-4.07 -2.55,0 -4.85,0.57 -6.91,1.72 -2.06,1.14 -3.67,2.72 -4.83,4.73 -1.16,2.01 -1.74,4.26 -1.74,6.74 0,2.48 0.58,4.73 1.74,6.74 1.16,2.01 2.77,3.59 4.83,4.73 2.06,1.14 4.36,1.72 6.91,1.72 3.82,0 7.04,-1.37 9.65,-4.12l3.19 3.09c-1.57,1.76 -3.47,3.1 -5.71,4.02 -2.24,0.91 -4.7,1.37 -7.38,1.37zm31.27 -15.63l-6.27 6.37 0 8.87 -4.9 0 0 -34.31 4.9 0 0 19.16 18.62 -19.16 5.59 0 -14.65 15.44 15.58 18.87 -5.73 0 -13.13 -15.24zm38.18 15.63c-3.43,0 -6.53,-0.76 -9.29,-2.28 -2.76,-1.52 -4.93,-3.61 -6.49,-6.27 -1.57,-2.66 -2.35,-5.66 -2.35,-8.99 0,-3.33 0.78,-6.33 2.35,-8.99 1.57,-2.66 3.74,-4.75 6.52,-6.27 2.78,-1.52 5.88,-2.28 9.31,-2.28 2.68,0 5.13,0.45 7.35,1.35 2.22,0.9 4.12,2.23 5.69,3.99l-3.19 3.09c-2.58,-2.71 -5.8,-4.07 -9.65,-4.07 -2.55,0 -4.85,0.57 -6.91,1.72 -2.06,1.14 -3.67,2.72 -4.83,4.73 -1.16,2.01 -1.74,4.26 -1.74,6.74 0,2.48 0.58,4.73 1.74,6.74 1.16,2.01 2.77,3.59 4.83,4.73 2.06,1.14 4.36,1.72 6.91,1.72 3.82,0 7.04,-1.37 9.65,-4.12l3.19 3.09c-1.57,1.76 -3.47,3.1 -5.71,4.02 -2.24,0.91 -4.7,1.37 -7.38,1.37zm49.6 -34.7l0 34.31 -4.9 0 0 -15.29 -19.7 0 0 15.29 -4.9 0 0 -34.31 4.9 0 0 14.75 19.7 0 0 -14.75 4.9 0zm32.15 25.73l-18.23 0 -3.77 8.58 -5.05 0 15.53 -34.31 4.85 0 15.59 34.31 -5.15 0 -3.77 -8.58zm-1.72 -3.92l-7.4 -16.81 -7.4 16.81 14.8 0zm15.73 -21.81l4.9 0 0 34.31 -4.9 0 0 -34.31zm44.7 0l0 34.31 -4.02 0 -20.58 -25.58 0 25.58 -4.9 0 0 -34.31 4.02 0 20.58 25.58 0 -25.58 4.9 0z"/>
   <path class="fil0" d="M435.8 227.2c-15.65,-4.87 -25.03,-31.57 -73.32,-58.3 -31.27,-17.31 -40.08,-15.89 -32.13,-29.74 13.36,-23.25 34.85,-47.54 64.35,-61.78 9.99,-4.82 18.23,-7.54 33.71,2 39.55,24.36 102.97,120.19 69.26,114.69 -2.85,-0.47 -19.43,2.14 -35.35,11.03 -16.81,9.39 -26.83,21.01 -26.51,22.1z"/>
   <path class="fil0" d="M755.55 31.31c3.48,-1.05 7.88,-0.28 12.67,1.57 35.46,13.69 77.12,56.06 90.64,91.22 30.51,79.3 -7.58,174.52 -90.76,105.48 -4.99,-6.44 -17.83,-15.62 -25.06,-21.93 -16.21,-14.13 -26.34,-11.03 -19.2,-18.59 29.8,-31.58 49.54,-61.74 40.37,-128.24 -0.6,-4.33 -8.65,-29.49 -8.65,-29.5z"/>
   <path class="fil0" d="M369.74 283.73c2.65,-2.73 12.48,-15.36 18.2,-25.18 2.03,-3.49 6.81,-6.79 6.02,-8.93 -0.37,-1 -1.14,-1.79 -2.4,-2.31 -25.5,-10.51 -78.99,-43.75 -96.37,-61.66 -8.96,3.49 -36.72,62.45 -31.43,77.39 15.96,-4.18 97.74,11.87 105.98,20.7z"/>
   <path class="fil0" d="M363.48 359.87c4.32,-4.48 -4.1,-24 -1.97,-35.4 0.21,-1.13 -5.84,0.28 -7.09,0.35 -28.54,1.71 -85.71,-11.04 -92.54,-10.78 -1.88,0.07 -1.69,2.78 -1.35,9.99 0.74,15.86 -2.42,43.59 28.69,88.06 12.11,-6.66 6.32,-31.55 74.27,-52.22z"/>
   <path class="fil0" d="M389.83 425.78c-0.61,-4.81 -9.6,-9.22 -11.61,-14.8 -4.4,-22.28 -7.63,-27.02 -39.65,-4.19 -33.18,35.29 -37.95,44.33 -24.55,67.57 6.67,11.57 21.17,35.4 36.35,28.33 0.01,-0.02 39.89,-72.41 39.47,-76.91z"/>
   <path class="fil0" d="M377.48 526.94c-0.62,-12.36 4.89,-20.4 8.45,-27.69 9.37,-19.18 17.18,-50.33 27.75,-53.01 3.75,-0.95 0.56,15.56 5.2,23.57l18.59 31.55 15.65 13.59c17.2,33.79 125.96,29.76 114.77,35.31 -15.04,7.47 -83.44,9.29 -116.13,1.72 -30.41,-7.05 -60.96,-18.29 -74.27,-25.05z"/>
   <path class="fil0" d="M578.63 187.51c-6.36,-8.36 5.2,-57.37 -31.32,-96.06 -25.94,-27.47 -65.92,-51.93 -69.27,-51.82 19.72,-27.75 137.03,-46.99 166.93,-36.93 56.9,19.15 38.57,164.25 21.83,173.38 -29.21,15.91 -59.91,9.23 -88.17,11.43z"/>
  </g>
 </g>
</svg>
