<?xml version="1.0" encoding="UTF-8"?>
<svg xmlns="http://www.w3.org/2000/svg" xml:space="preserve" width="86.5193mm" height="79.1097mm" version="1.1" style="shape-rendering:geometricPrecision; text-rendering:geometricPrecision; image-rendering:optimizeQuality; fill-rule:evenodd; clip-rule:evenodd"
viewBox="0 0 712.32 651.32"
 xmlns:xlink="http://www.w3.org/1999/xlink"
 xmlns:xodm="http://www.corel.com/coreldraw/odm/2003">
 <defs>
  <style type="text/css">
    .fil0 {fill:#FEFEFE}
  </style>
 </defs>
 <g id="Слой_x0020_1">
  <metadata id="CorelCorpID_0Corel-Layer"/>
  <g id="_1912372965840">
   <path class="fil0" d="M169.99 554.31l7.47 -11.29c35.91,79.18 91.46,104.29 170.25,103.38 177.16,-2.04 322.72,-200.52 211.7,-305.52 2.18,-0.21 3.11,-0.08 5.57,-0.44l6.15 -1.31c-17.43,-8.15 -36.93,-1.61 -45.79,13.77 -4.7,8.16 -3.85,12.76 -1.85,18.4 4.94,-12.65 4.74,-14.57 15.77,-24.37 23.71,45.97 -24.96,124.99 -76.11,166.71 -18.86,15.39 -59.09,37.13 -83.38,45 -60.2,19.5 -156.21,19.75 -184.86,-26.32 9.64,-6.07 17.89,-1.81 30.32,-2.34 -34.22,-28.07 -68.07,-4.31 -55.25,24.34zm46.37 35.44c-15.77,-15.18 -26.75,-37.24 -31.94,-52.74 5.78,0.26 6.92,4.9 11.96,10.29 14.22,15.24 14.15,6.14 17.94,28.19 0.49,2.86 0.84,4.16 1.24,6.83l0.67 5.87c-0.39,-0.06 0.08,1.03 0.14,1.55zm51.15 32.24c-26.26,-5.34 -55.1,-27.17 -49.34,-55.81 5.17,1.16 14.93,6 20.03,8.64 7.93,4.11 6.01,7.03 9.24,15.1 5.34,13.35 13.02,20.53 20.07,32.07zm48.99 9.16c-33.15,2.35 -51.96,-12.87 -64.1,-42.01 -2.09,-5.03 -1.89,-5.35 -2.1,-9.44 6.38,0.52 14.29,3.01 21.76,4.03 12.14,1.65 9.19,1.48 14.3,11.19 6.77,12.86 18.96,24.15 30.15,36.22zm47.52 -2.73c-11.47,3.51 -12.31,2.13 -22.3,2.82 -9.17,0.63 -13.81,2.41 -22.67,-4.83 -14.76,-12.05 -22.29,-26.14 -31.7,-38.82l4.75 -0.96c8.02,-0.91 22.65,2.09 36.01,-1.2 8.03,15.89 17.79,29.89 35.91,42.98zm65.09 -16.02c-9.12,6.1 -41.21,13.19 -51.35,14.41 -17.07,2.05 -36.94,-26.62 -43.59,-40.84 7.21,-2.06 20.48,-4.28 29.07,-6.05 11.39,-2.35 18.91,-4.77 29.8,-7.63 3.72,14.21 21.46,29.71 36.07,40.12zm152.27 -211.4c-27.52,-31.19 -24.91,-16.11 -29.85,-41.8 -1.65,-8.58 -4.44,-10.21 -3.17,-17.58 21.35,17.56 32.23,40.36 33.02,59.38zm-2.81 51.16c-6.23,-11.94 -8.27,-20.51 -18.85,-33.62 -8.9,-11.02 -9.5,-10.41 -5.59,-38.3 26.6,20.79 36.33,38.54 24.44,71.92zm-100.23 137.18c-12.76,9.32 -28.86,16.15 -42.44,21.49 -16.14,-9.34 -34.76,-26.57 -37.34,-40.59 10.39,-4.77 21.38,-8.95 32.67,-14.83 7.5,-3.9 26.81,-17.45 33.15,-19.41 5.07,9.66 6.91,16.2 9.74,26.2 1.35,4.77 4.53,22.9 4.23,27.14zm82.82 -91.52c-3.63,-5.96 -5.27,-15.84 -9.05,-24.39 -16.01,-36.21 -16.43,-10.77 -2.02,-57.84 9.9,7.93 20.45,28.54 23.18,37.54 4.46,14.71 -3.02,27.74 -12.12,44.69zm-28.07 42.59c-5.23,-11.72 -2.75,-31.97 -18.35,-53.28l21.78 -32.72c7.56,11.42 15,29.56 17.54,39.95 4.48,18.29 -7.2,27.82 -20.98,46.06zm-48.95 45.41c-2.13,-5.13 -3.53,-17.36 -5.4,-25.77 -1.82,-8.2 -5.15,-19.64 -10.95,-27.06 15.78,-14.82 27.85,-24.31 43.63,-41.44 8.97,10.73 16.19,41.61 15.35,50.98 -1.22,13.6 -31.67,35.01 -42.62,43.29z"/>
   <path class="fil0" d="M193.8 468.2c38.44,-8.9 72.43,-13.55 100.93,-10.28 -2.1,0.3 -3.52,0.18 -6.3,0.92 -2.69,0.72 -4.78,0.71 -6.09,0.88l-88.54 8.48zm293.35 -143.85c-30.58,24.94 -55.06,48.97 -69.93,73.5 1.52,-1.47 2.29,-2.67 4.59,-4.41 2.22,-1.69 3.49,-3.34 4.43,-4.27l60.92 -64.81zm40.66 81.31c-39.27,3.91 -72.94,10.42 -98.89,22.65 2.08,-0.39 3.39,-0.96 6.26,-1.15 2.78,-0.18 4.75,-0.86 6.05,-1.12l86.58 -20.39zm-13.6 -44.49c-36.03,16.08 -65.94,32.87 -86.72,52.66 1.86,-1.02 2.91,-1.98 5.58,-3.06 2.58,-1.05 4.24,-2.31 5.39,-2.97l75.74 -46.63zm-281.03 188.96c27.13,-28.65 52.9,-51.29 78.46,-64.32 -1.58,1.41 -2.83,2.09 -4.74,4.25 -1.85,2.09 -3.59,3.23 -4.59,4.1l-69.13 55.97zm-26.85 -37.99c34.78,-18.64 66.37,-32.01 94.73,-36.31 -1.95,0.84 -3.35,1.09 -5.84,2.54 -2.41,1.4 -4.43,1.94 -5.65,2.44l-83.25 31.33z"/>
   <path class="fil0" d="M313.85 467.39c9.28,13.18 30.44,8.79 34.5,9.77 6.71,1.62 25.32,27.31 45.91,21.83 17.73,-4.72 5.38,-41.73 13.32,-55.11 6.51,-7.5 15.01,-26.02 1.33,-35.05 -19.05,-12.57 -26.66,16.32 -77.41,29.45 -14.92,3.86 -26.27,16.9 -17.66,29.12z"/>
   <path class="fil0" d="M205.25 265.75c-18.31,-5.7 -29.27,-36.92 -85.76,-68.19 -36.57,-20.24 -46.89,-18.59 -37.59,-34.78 15.62,-27.19 40.77,-55.61 75.27,-72.27 11.69,-5.64 21.32,-8.82 39.43,2.34 46.26,28.49 120.44,140.58 81,134.14 -3.34,-0.55 -22.72,2.5 -41.35,12.9 -19.67,10.99 -31.38,24.57 -31.01,25.85z"/>
   <path class="fil0" d="M579.26 36.63c4.07,-1.23 9.22,-0.33 14.82,1.84 41.48,16.01 90.2,65.57 106.02,106.7 35.68,92.75 -8.86,204.13 -106.16,123.37 -5.83,-7.53 -20.85,-18.27 -29.32,-25.65 -18.96,-16.52 -30.81,-12.9 -22.46,-21.75 34.86,-36.93 57.95,-72.21 47.21,-150 -0.7,-5.06 -10.12,-34.5 -10.11,-34.51z"/>
   <path class="fil0" d="M127.99 331.86c3.1,-3.19 14.6,-17.97 21.29,-29.45 2.38,-4.08 7.97,-7.94 7.04,-10.45 -0.43,-1.17 -1.34,-2.09 -2.81,-2.7 -29.82,-12.3 -92.4,-51.18 -112.73,-72.12 -10.47,4.08 -42.94,73.04 -36.76,90.51 18.67,-4.89 114.32,13.88 123.97,24.21z"/>
   <path class="fil0" d="M120.67 420.92c5.05,-5.25 -4.79,-28.07 -2.31,-41.41 0.25,-1.32 -6.83,0.32 -8.29,0.41 -33.38,2 -100.25,-12.91 -108.24,-12.61 -2.2,0.08 -1.97,3.25 -1.58,11.68 0.87,18.55 -2.84,50.99 33.55,103 14.17,-7.79 7.39,-36.9 86.87,-61.08z"/>
   <path class="fil0" d="M151.49 498.01c-0.71,-5.63 -11.23,-10.79 -13.58,-17.31 -5.15,-26.06 -8.92,-31.61 -46.38,-4.9 -38.81,41.28 -44.38,51.85 -28.72,79.03 7.8,13.53 24.77,41.41 42.51,33.14 0.01,-0.02 46.66,-84.7 46.17,-89.96z"/>
   <path class="fil0" d="M137.04 616.34c-0.72,-14.46 5.72,-23.86 9.89,-32.38 10.96,-22.43 20.09,-58.86 32.46,-62 4.38,-1.11 0.65,18.2 6.08,27.56l21.74 36.91 18.3 15.9c20.11,39.53 147.33,34.81 134.24,41.3 -17.59,8.73 -97.59,10.87 -135.83,2.01 -35.57,-8.24 -71.3,-21.39 -86.87,-29.3z"/>
   <path class="fil0" d="M372.32 219.33c-7.44,-9.78 6.09,-67.11 -36.63,-112.35 -30.34,-32.13 -77.11,-60.74 -81.03,-60.61 23.07,-32.46 160.27,-54.97 195.25,-43.19 66.55,22.4 45.11,192.12 25.53,202.79 -34.16,18.61 -70.07,10.79 -103.13,13.37z"/>
  </g>
 </g>
</svg>
