<?xml version="1.0" encoding="UTF-8"?> <svg xmlns="http://www.w3.org/2000/svg" width="60" height="64" viewBox="0 0 60 64" fill="none"> <path d="M3.63653 15.62H55.8703V38.9268L48.2666 53.9688L29.9187 61.7378L12.8931 53.9688L1.48767 38.1004L3.63653 15.62Z" fill="white"></path> <path d="M53.6484 15.5507C53.3769 15.5688 53.0873 15.5688 52.7977 15.6231C45.9921 16.7996 39.1865 17.9761 32.3628 19.1164C31.2406 19.2974 30.0641 19.5508 28.9781 19.3698C21.7924 18.2114 14.6429 16.9444 7.47528 15.7136C6.98658 15.6231 6.49788 15.5869 5.91868 15.5326C5.35758 19.1526 5.37568 22.7364 5.14038 26.3021C7.42098 22.7907 10.8238 20.4558 15.3126 20.4558H15.3669C21.4485 20.4558 26.5346 24.7093 27.8197 30.4108C27.9283 26.5374 28.4532 23.6233 29.7021 23.6233C29.7202 23.6233 29.7202 23.6233 29.7383 23.6233C29.7564 23.6233 29.7564 23.6233 29.7745 23.6233C31.0234 23.6233 31.5483 26.5374 31.6569 30.4108C32.942 24.7093 38.0281 20.4558 44.1097 20.4558H44.164C48.8881 20.4558 52.4719 23.026 54.6801 26.8451C54.5715 22.5011 54.5896 18.2295 53.6484 15.5507ZM25.8468 20.4558C25.8468 20.4558 24.2178 19.3698 22.7698 18.8268L20.9598 18.2838L27.1138 19.3698L25.8468 20.4558ZM36.7068 18.8268C35.2588 19.3698 33.6298 20.4558 33.6298 20.4558L32.3628 19.3698L38.5168 18.2838L36.7068 18.8268Z" fill="#D2D5D6"></path> <path d="M32.7248 31.8044C33.6298 32.2207 33.9013 32.9085 33.6298 34.1212C33.3583 35.2796 33.7203 35.6416 34.9511 35.4063C36.6706 35.0986 37.2679 34.0669 36.7249 32.4017C36.6706 32.2026 36.5982 32.0216 36.5258 31.7501C37.5575 32.3836 38.01 33.7954 37.4308 34.7185C36.8154 35.714 36.1095 36.6552 35.4398 37.6326C35.2769 37.8679 35.114 38.1032 34.8425 38.4652C36.9059 38.791 38.7702 39.2978 40.7069 38.8815C41.3585 38.7367 42.0282 38.3747 42.5169 37.9403C43.1142 37.3973 43.5667 37.3792 44.2364 37.9222C42.173 39.7141 39.8743 40.9811 37.2679 41.5784C34.571 42.1938 32.037 41.8861 29.9555 39.877C29.2858 40.3114 28.7247 40.7639 28.0912 41.0897C25.9554 42.1576 23.7653 41.9766 21.5752 41.3069C19.3308 40.6191 17.3398 39.4969 15.5298 37.9041C16.1633 37.3973 16.6339 37.3068 17.2131 37.9403C18.1 38.8996 19.3127 39.1168 20.5435 39.0444C21.9553 38.9539 23.349 38.7548 24.9418 38.5738C24.7246 38.2299 24.616 37.9946 24.4712 37.7955C23.8196 36.8543 23.1137 35.9493 22.4983 34.99C21.8105 33.9221 22.082 32.6551 23.3128 31.6596C23.1499 32.1483 23.0413 32.4741 22.9689 32.7818C22.7698 33.5058 22.7336 34.1936 23.4214 34.7366C24.1997 35.352 25.0504 35.6778 26.0278 35.2977C26.1907 35.2434 26.2631 34.7909 26.2631 34.5194C26.2812 33.904 26.1364 33.2705 26.2269 32.6732C26.2812 32.3293 26.6432 32.0397 26.9328 31.7863C26.9509 35.3158 27.4215 35.9493 29.9917 35.9312C32.399 35.8588 32.8515 35.1891 32.7248 31.8044Z" fill="#3C3A3E"></path> <path d="M9.41205 19.5145C14.4438 18.2837 19.4032 17.6864 24.0006 20.9987C24.4893 21.3426 24.8151 21.2883 25.2857 21.0168C25.5391 20.872 25.9373 20.8358 26.2269 20.9263C26.3898 20.9806 26.6251 21.4693 26.5527 21.5598C26.3355 21.8494 26.0278 22.1752 25.702 22.2476C24.8513 22.4286 24.0187 22.4105 23.2042 21.8675C19.8557 19.6412 16.0909 19.2249 12.1994 19.4783C11.2763 19.5326 10.3532 19.6593 9.43015 19.7498C9.43015 19.6774 9.43015 19.605 9.41205 19.5145Z" fill="#3C3A3E"></path> <path d="M58.5173 15.3154C49.1958 10.3017 39.8743 5.26985 30.5709 0.219954C30.0641 -0.0515461 29.684 -0.0877461 29.1591 0.201854C19.8738 5.23365 10.5885 10.2474 1.2851 15.243C0.3801 15.7317 0 16.4195 0 17.4331C0.0181 22.2838 0 27.1527 0 32.0035C0 36.8905 0 41.7775 0 46.6645C0 47.6238 0.361999 48.3116 1.2489 48.7822C10.498 53.7597 19.729 58.7372 28.96 63.7328C29.5935 64.0767 30.0641 64.0948 30.6976 63.7509C39.9286 58.7553 49.1596 53.7778 58.4087 48.8004C59.2775 48.3298 59.6757 47.66 59.6757 46.7007C59.6757 36.8905 59.6757 27.0984 59.6757 17.2882C59.6938 16.4014 59.3318 15.7679 58.5173 15.3154ZM29.0505 60.0404C28.1093 59.6965 26.2993 58.8639 26.3174 58.7915C27.2767 59.063 28.236 59.3164 29.2134 59.5879L29.0505 60.0404ZM30.4623 60.0404L30.2994 59.5879C31.2587 59.3164 32.218 59.063 33.1954 58.7915C33.2135 58.8639 31.4035 59.6965 30.4623 60.0404ZM53.5217 41.3431C54.4991 37.3792 54.5172 33.3972 53.8656 29.1799C53.3407 30.1754 53.0149 31.0623 52.4538 31.7501C51.5488 32.8904 50.6257 34.1031 49.4673 34.9538C47.3677 36.4742 45.0509 36.0941 42.8427 35.0805C41.6843 34.5375 40.5983 33.8316 39.4942 33.1981C39.7476 34.1031 40.8155 35.2977 42.2997 35.9855C43.5486 36.5647 44.8699 36.9267 46.2455 37.4154C46.1369 37.5602 46.0102 37.7955 45.8473 37.9765C43.1142 41.0173 39.7114 42.5739 35.6208 42.5558C34.2633 42.5558 32.9058 42.6282 31.5664 42.7368C31.132 42.773 30.6976 42.9902 30.2632 43.135C30.2813 43.2074 30.2994 43.2798 30.3175 43.3522C32.7791 43.3522 35.2407 43.5694 37.6842 43.2979C41.8834 42.8454 45.612 41.2526 48.2546 37.6869C48.327 37.7231 48.3994 37.7593 48.4718 37.8136C48.2727 38.429 48.0736 39.0625 47.8564 39.6779C47.603 40.3476 47.3134 41.0173 47.0238 41.687C46.7342 42.3205 46.4265 42.9359 46.0826 43.5332C45.7568 44.1305 45.3586 44.6916 45.1595 45.4156C46.9695 43.2617 48.7795 41.1078 50.7343 38.7729C50.2275 39.877 49.8112 40.8001 49.3587 41.687C47.241 45.85 44.6708 49.6329 40.8336 52.4203C38.1186 54.3751 35.114 55.4973 31.7474 55.6059C31.5121 55.6059 31.2768 55.6059 30.8967 55.6059C32.0732 52.7642 33.1773 49.9949 31.5483 46.936C33.5031 47.1351 35.2769 47.1351 36.8154 45.8319C36.2905 45.9044 35.7475 46.0491 35.2226 46.0491C33.5755 46.0853 31.9284 46.0853 30.2632 46.0853C30.1184 46.0853 29.9555 46.0129 29.8107 46.031C27.512 46.5378 25.2495 46.1939 22.9508 45.7957C23.6748 46.7188 24.3988 46.8817 28.1817 47.0084C26.6251 49.9406 27.6568 52.6918 28.9057 55.6059C28.0007 55.5516 27.2405 55.5697 26.4984 55.4611C21.901 54.8276 18.281 52.4746 15.2764 49.0537C12.8148 46.2482 10.9867 43.0083 9.4301 39.6236C9.3577 39.4788 9.3396 39.2978 9.2672 39.0444C11.0048 41.1078 12.67 43.0626 14.48 45.2165C13.2854 42.592 12.2175 40.2028 11.1496 37.8317C11.2401 37.7774 11.3487 37.7231 11.4392 37.6688C11.584 37.8317 11.7469 37.9765 11.8917 38.1394C14.7334 41.5784 18.5706 42.9902 22.8603 43.3522C24.3988 43.4789 25.9916 43.2074 27.5482 43.1531C28.1817 43.135 28.7971 43.2436 29.503 43.0988C29.0686 42.954 28.6523 42.7187 28.2179 42.7006C26.7699 42.592 25.3219 42.5377 23.892 42.5196C19.7109 42.4472 16.3081 40.8001 13.6474 37.5964C13.5931 37.524 13.575 37.4335 13.4845 37.2344C16.3624 36.7638 18.8783 35.7321 20.3806 33.0171C19.9281 33.3248 19.4937 33.6687 19.005 33.904C17.7018 34.5375 16.4348 35.2615 15.0592 35.6597C12.1089 36.5104 9.2853 35.0986 7.421 32.0035C6.8961 31.1347 6.4617 30.2116 5.9549 29.2885C5.2671 31.3338 5.3576 35.8588 6.0997 41.1802C4.5612 36.3475 4.3078 31.5148 4.6336 26.6278C4.8689 23.0621 5.3938 19.4783 5.9549 15.8583C6.516 15.9307 7.0228 15.9488 7.5115 16.0394C14.6791 17.2701 21.8467 18.5372 29.0143 19.6956C30.1003 19.8766 31.2768 19.6231 32.399 19.4422C39.2227 18.3018 46.0283 17.1073 52.8339 15.9488C53.1235 15.8945 53.4131 15.8945 53.6846 15.8764C54.6258 18.5552 55.1507 22.8269 55.2593 27.1708C55.3498 32.8723 54.7887 38.7005 53.5217 41.3431Z" fill="#3C3A3E"></path> <path d="M23.2223 24.9265C23.2223 24.9446 23.2404 24.9627 23.2404 24.9808C23.0232 22.6459 20.6521 20.4558 17.4484 19.8585C15.1316 19.4241 12.9415 19.8947 11.4935 20.9807C12.9958 20.4377 14.8782 20.2929 16.833 20.6549C19.2584 21.1074 21.2675 22.2477 22.4259 23.6595C21.2313 22.2839 19.1136 21.3608 16.7063 21.3608C14.3533 21.3608 12.2718 22.2296 11.0591 23.569C12.4347 22.7545 14.2447 22.2658 16.2538 22.2658C19.4575 22.2658 22.1906 23.5328 23.349 25.3247C23.3128 25.1799 23.2766 25.0532 23.2223 24.9265Z" fill="#D4D6D8"></path> <path d="M36.5439 24.9265C36.5439 24.9446 36.5258 24.9627 36.5258 24.9808C36.743 22.6459 39.1141 20.4558 42.3178 19.8585C44.6346 19.4241 46.8247 19.8947 48.2727 20.9807C46.7704 20.4377 44.888 20.2929 42.9332 20.6549C40.5078 21.1074 38.4987 22.2477 37.3403 23.6595C38.553 22.2658 40.6526 21.3608 43.0599 21.3608C45.4129 21.3608 47.4944 22.2296 48.7071 23.569C47.3315 22.7545 45.5215 22.2658 43.5124 22.2658C40.3087 22.2658 37.5756 23.5328 36.4172 25.3247C36.4353 25.1799 36.4896 25.0532 36.5439 24.9265Z" fill="#D4D6D8"></path> <path d="M50.4266 19.8098C49.5035 19.7193 48.5804 19.5926 47.6573 19.5202C43.5667 19.2487 39.6752 19.7374 36.1457 22.0723C35.5303 22.4705 34.4262 22.1809 33.5755 22.1085C33.4307 22.0904 33.3221 21.5655 33.1954 21.2578C33.5393 21.1492 34.0461 20.8234 34.2271 20.9501C34.9692 21.4931 35.476 21.2397 36.1457 20.7691C39.2046 18.6152 42.6798 18.3256 46.2636 18.7781C47.6754 18.9591 49.0691 19.303 50.4628 19.5745C50.4447 19.665 50.4266 19.7374 50.4266 19.8098Z" fill="#3C3A3E"></path> </svg> 